<?xml version="1.0" encoding="UTF-8"?><svg id="Layer_2" xmlns="http://www.w3.org/2000/svg" viewBox="0 0 590.87842 92.36816"><g id="Layer_1-2"><g><path d="M25.86426,33.04395c-.78613,.96094-2.01904,1.77637-3.69873,2.44775,1.95117,.57617,3.33301,1.59668,4.146,3.06006,.81299,1.46484,1.21973,3.63623,1.21973,6.51611,0,.86426-.01416,1.70459-.04102,2.52002v.86426c0,1.96875,.3252,2.95215,.97559,2.95215,.1626,0,.41309-.05957,.75195-.17969s.58936-.18066,.75195-.18066c.5957,0,1.07715,.44434,1.44336,1.33203,.36572,.88867,.54883,2.05176,.54883,3.49219,0,1.58398-.26465,2.84375-.79297,3.78027-.52832,.93555-1.22656,1.40332-2.09326,1.40332-.29834,0-.75879-.06055-1.38184-.17969-.62402-.12012-1.08447-.17969-1.38232-.17969-.3252,0-.80664,.05957-1.44287,.17969-.63721,.11914-1.11768,.17969-1.44287,.17969-1.00293,0-1.80908-.73047-2.41895-2.19531-.60938-1.46387-.91455-3.39551-.91455-5.7959,0-.24023,.01367-.40723,.04102-.50488l.08105-4.17578v-.50391c0-2.49512-.35938-4.22314-1.07715-5.18408-.71826-.95947-2.01221-1.43994-3.88184-1.43994-.75928,0-1.2334,.35986-1.42285,1.08008-.13574,.48047-.20312,1.36768-.20312,2.66406v1.65576c0,3.26514,.33838,4.896,1.01611,4.896,.18945,0,.48096-.08301,.87402-.25195,.39258-.16699,.69727-.25195,.91455-.25195,.56885,0,1.0498,.45703,1.44287,1.36816,.39258,.91211,.58936,2.04102,.58936,3.38379,0,3.50488-.94873,5.25586-2.84521,5.25586-.65039,0-1.53125-.12012-2.64209-.35938-1.11133-.24023-2.07324-.36035-2.88623-.36035-.86719,0-1.86963,.12012-3.00781,.36035-1.13818,.23926-2.1001,.35938-2.88574,.35938-1.97852,0-2.96777-1.75098-2.96777-5.25586,0-1.34277,.20996-2.47168,.63037-3.38379,.41992-.91113,.94092-1.36816,1.56494-1.36816,.24365,0,.58252,.08496,1.01611,.25195,.43311,.16895,.74512,.25195,.93506,.25195,.73145,0,1.09717-1.63086,1.09717-4.896V26.70801c0-1.53564-.02734-2.52002-.08105-2.95215-.13574-1.24756-.47461-1.87207-1.01611-1.87207-.21729,0-.53564,.08447-.95557,.25195-.42041,.16895-.75195,.25195-.99561,.25195-.62402,0-1.14502-.45557-1.56494-1.36768-.42041-.91113-.63037-2.03955-.63037-3.38428,0-1.53564,.26465-2.80762,.79297-3.81592,.52832-1.00781,1.2124-1.51172,2.05273-1.51172,.1626,0,.28467,.02441,.36572,.07178l2.88623,.50391c.81299,.14404,1.67969,.21631,2.60107,.21631,1.59863,0,3.61768-.14404,6.05664-.43213,1.62598-.19141,2.83154-.28809,3.61768-.28809,2.57422,0,4.61377,1.14062,6.11768,3.41992,1.50391,2.28027,2.25586,5.38867,2.25586,9.32422,0,3.6001-.70508,6.24023-2.11377,7.91992Zm-9.22705-11.08789c-1.08398,0-1.78857,.12012-2.11377,.35986-.59619,.48047-.89404,1.51221-.89404,3.09619v4.31982c0,1.10449,.10156,1.82471,.30469,2.16016,.20361,.33594,.58936,.50391,1.15869,.50391,3.52246,0,5.28418-1.84717,5.28418-5.54395,0-3.26367-1.24658-4.896-3.73975-4.896Z" style="fill:none; stroke:#231f20; stroke-miterlimit:10;"/><path d="M52.56982,45.78809h-5.40625c-1.54443,0-2.31689,1.63232-2.31689,4.89648,0,.76758,.22998,1.15137,.69092,1.15137,.13525,0,.33887-.03613,.60986-.10742,.27051-.07227,.47363-.1084,.60986-.1084,1.00195,0,1.50391,1.41602,1.50391,4.24805,0,1.53711-.23047,2.78418-.69092,3.74414-.46143,.96094-1.0708,1.43945-1.82959,1.43945-.37939,0-1.21924-.16797-2.52002-.50391-.56885-.14355-1.36865-.21582-2.39795-.21582-1.11182,0-1.97852,.07227-2.60156,.21582-1.43701,.33594-2.29053,.50391-2.56104,.50391-.84033,0-1.52441-.45508-2.05273-1.36719s-.79248-2.1123-.79248-3.60059c0-3.35938,.71777-5.04004,2.1543-5.04004,.1626,0,.41992,.03613,.77246,.1084,.35156,.07227,.60938,.10742,.77197,.10742,.51465,0,.93506-.50391,1.26025-1.51172,.08105-.28809,.27051-1.17578,.56885-2.66406l5.60986-28.2959c.65039-3.21533,1.38184-5.23145,2.19482-6.04834,.5957-.52734,1.91064-.79199,3.94287-.79199,2.27637,0,3.7124,.25195,4.30859,.75635,.5957,.50391,1.0835,1.90771,1.46338,4.21191l5.20312,30.67188c.40625,2.44824,.88037,3.67188,1.42236,3.67188,.1626,0,.44727-.07129,.854-.21582h.44678c1.51758,0,2.27637,1.58398,2.27637,4.75195,0,1.58398-.271,2.85645-.81299,3.81641-.54248,.96094-1.24658,1.43945-2.11377,1.43945-.37939,0-.88086-.07129-1.50391-.21582-.75879-.23926-1.25977-.35938-1.50391-.35938-.59619-.0957-1.36865-.14453-2.31689-.14453-1.03027,0-1.72119,.04883-2.07324,.14453-1.38184,.38281-2.24951,.5752-2.60156,.5752-.73145,0-1.33496-.49121-1.80859-1.47559-.47461-.9834-.71143-2.21973-.71143-3.70801,0-2.83203,.51465-4.24805,1.54492-4.24805,.13525,0,.33838,.03613,.60938,.1084,.27051,.07129,.47412,.10742,.60986,.10742,.51465,0,.77246-.50391,.77246-1.51172,0-1.2959-.14941-2.37598-.44727-3.24023-.29834-.86426-.67773-1.2959-1.13818-1.2959Zm-.60986-11.01611l-1.95117-14.76025-2.52002,15.33594c-.02734,.14404-.04053,.31299-.04053,.50439,0,.57568,.33838,.86377,1.01611,.86377h2.52002c.70459,0,1.05713-.33496,1.05713-1.00781,0,.04834-.02734-.26318-.08154-.93604Z" style="fill:none; stroke:#231f20; stroke-miterlimit:10;"/><path d="M75.12891,48.95605c-.97559,0-1.72119-.91113-2.23535-2.73633-.29883,.72021-.44727,1.41699-.44727,2.08887,0,1.2959,.33154,2.36426,.99561,3.20312,.66406,.84082,1.51074,1.26074,2.54053,1.26074,1.84277,0,3.21143-1.17578,4.10547-3.52832,.56934-1.4873,.854-3.81641,.854-6.98438V25.62793c0-1.34326-.08154-2.25586-.24414-2.73584-.21729-.67188-.65039-1.0083-1.30078-1.0083-.29834,0-.73877,.08447-1.3208,.25195-.58301,.16895-1.02344,.25195-1.32129,.25195-.59619,0-1.09131-.43164-1.4834-1.2959-.39355-.86377-.58984-1.99121-.58984-3.38379,0-1.63135,.27783-2.92725,.8335-3.88818,.55518-.95947,1.28027-1.43994,2.1748-1.43994,.5957,0,1.36816,.09668,2.31689,.28809,1.40869,.28809,2.8584,.43213,4.34912,.43213,.89453,0,1.98486-.11963,3.27246-.36035,1.28662-.23926,2.12012-.35986,2.49951-.35986,.94824,0,1.7207,.48047,2.31738,1.43994,.5957,.96094,.89404,2.2085,.89404,3.74414,0,1.34424-.23047,2.48389-.69092,3.41992-.46143,.93604-1.04346,1.40381-1.74805,1.40381-.35254,0-.69092-.09521-1.01611-.2876-.56885-.14404-.84033-.21631-.81299-.21631-.67773,0-1.01611,1.24902-1.01611,3.74414v18.93604c0,3.12061-.22363,5.61572-.6709,7.48779-.44678,1.87207-1.22607,3.60059-2.33691,5.18457-2.22266,3.16797-4.93262,4.75195-8.12988,4.75195-3.03516,0-5.55566-1.37891-7.56055-4.14062-2.00586-2.75879-3.00781-6.25098-3.00781-10.47559,0-3.40771,.66357-6.32373,1.9917-8.74805,1.32715-2.42334,2.9126-3.63623,4.75586-3.63623,1.46338,0,2.70947,.75586,3.73975,2.26807,1.0293,1.51221,1.54443,3.34814,1.54443,5.50781,0,1.72803-.31885,3.19287-.95508,4.39209-.63721,1.20068-1.40234,1.80029-2.29688,1.80029Z" style="fill:none; stroke:#231f20; stroke-miterlimit:10;"/><path d="M108.66406,21.45166c-.89453,0-1.49072,.14404-1.78857,.43213-.40674,.43213-.60986,1.39307-.60986,2.87988v4.03223c0,.81689,.06104,1.42871,.18311,1.83594,.12158,.4082,.43994,.61182,.95508,.61182,1.19189,0,1.78857-.76709,1.78857-2.30371v-.93604c-.02734-.28809-.04102-.64795-.04102-1.08008,0-2.01611,.66406-3.02393,1.99219-3.02393,1.38184,0,2.07275,1.22412,2.07275,3.67188,0,.67285-.02734,1.4165-.08105,2.23193-.10889,1.58398-.1626,3.04883-.1626,4.39209,0,1.24902,.05371,2.83301,.1626,4.75195,.10791,1.92041,.1626,3.26465,.1626,4.03223,0,2.83252-.71826,4.24805-2.1543,4.24805-1.35547,0-2.03271-1.22412-2.03271-3.67236v-.35986c0-.23975,.02686-.81543,.08154-1.72803,0-1.15186-.58301-1.72803-1.74805-1.72803-.78613,0-1.17871,.76855-1.17871,2.3042v5.3999c0,1.68115,.16895,2.8208,.5083,3.42041,.33838,.60059,.96826,.89941,1.89014,.89941h2.35742c1.73389,0,2.94678-.2627,3.63818-.79199,.69092-.52734,1.03613-1.46289,1.03613-2.80762,0-.67188-.04053-1.47607-.12158-2.41211-.08154-.93604-.12207-1.71582-.12207-2.33984,0-1.77539,.28467-3.16846,.85352-4.17627,.56934-1.00781,1.34131-1.51172,2.31689-1.51172,1.97803,0,2.96729,1.91992,2.96729,5.75977,0,1.24854-.04053,2.56836-.12207,3.95996-.13574,2.3042-.20312,3.74463-.20312,4.31982,0,.5293,.06738,1.56055,.20312,3.09668,.08154,.91211,.12207,1.84863,.12207,2.80762,0,2.25684-.79932,3.38379-2.39795,3.38379-.51514,0-1.36865-.07129-2.56104-.21582-1.97852-.23926-5.13574-.40723-9.47119-.50391h-3.61768c-1.35498,0-2.47949,.07227-3.37354,.21582l-3.08936,.50391c-.02734,0-.08105,.02441-.1626,.07227h-.20312c-.84033,0-1.52441-.50391-2.05273-1.51172s-.79297-2.2793-.79297-3.81641c0-1.34277,.20996-2.47168,.63037-3.38379,.41992-.91113,.95508-1.36816,1.60547-1.36816,.2168,0,.54199,.08496,.97559,.25195,.43311,.16895,.74512,.25195,.93506,.25195,.73145,0,1.09717-1.63086,1.09717-4.896V26.70801c0-3.21533-.36572-4.82422-1.09717-4.82422-.1626,0-.48779,.09668-.97559,.28809-.35254,.14404-.66455,.21582-.93506,.21582-.62354,0-1.15186-.45557-1.58545-1.36768-.43359-.91113-.65039-2.03955-.65039-3.38428,0-3.50293,.98926-5.25586,2.96777-5.25586,.46045,0,1.39502,.09668,2.80469,.28809,2.11328,.28809,4.15918,.43213,6.1377,.43213,.18945,0,1.81494-.07227,4.87793-.21631,2.22168-.0957,3.68506-.19092,4.38965-.28809,1.16504-.14404,2.38428-.21582,3.65869-.21582,1.51709,0,2.27588,1.17676,2.27588,3.52783,0,.76855-.04736,1.89697-.14209,3.38428-.09521,1.48828-.14209,2.6167-.14209,3.38379,0,.76855,.06104,1.86084,.18262,3.27588,.12207,1.4165,.18311,2.48438,.18311,3.2041,0,1.39307-.2915,2.56836-.87402,3.52832-.58301,.96045-1.30762,1.43994-2.1748,1.43994-2.03223,0-3.04834-1.84717-3.04834-5.54395,0-.62354,.06104-1.4873,.18262-2.59229,.12207-1.10352,.18311-1.91895,.18311-2.44775,0-1.05518-.31201-1.70361-.93506-1.94434-.2168-.09521-.78613-.14404-1.70703-.14404h-4.02393Z" style="fill:none; stroke:#231f20; stroke-miterlimit:10;"/><path d="M134.75928,11.37207c2.81787,0,5.04004,1.7041,6.66602,5.11182,.02686-1.67969,.20996-2.83154,.54883-3.45605,.33887-.62305,.92822-.93604,1.76807-.93604,1.73389,0,2.60156,1.2959,2.60156,3.88818,0,.71973-.04053,1.77637-.12158,3.16797-.08154,1.39258-.12207,2.44775-.12207,3.16797,0,.43213,.02637,1.05615,.08105,1.87207,.0542,.81689,.08154,1.43994,.08154,1.87207v.35986c0,2.83252-.92188,4.24805-2.76416,4.24805-1.54443,0-2.46631-1.15186-2.76416-3.45605l-.20312-1.51221c-.40674-3.11963-1.84326-4.67969-4.30859-4.67969-2.33105,0-3.49609,1.43994-3.49609,4.31982,0,1.48828,.25049,2.49658,.75195,3.02393,.50146,.52881,1.76855,1.15234,3.80078,1.87207,3.41455,1.2002,5.89404,3.00049,7.43848,5.3999,1.54492,2.40088,2.31738,5.66455,2.31738,9.79199,0,4.84961-.93506,8.82031-2.80518,11.91602-1.86963,3.09668-4.25439,4.64453-7.15381,4.64453-2.41211,0-4.729-1.53613-6.95068-4.6084-.08154,2.68945-.89453,4.03223-2.43896,4.03223-1.76221,0-2.64209-1.53516-2.64209-4.6084,0-1.00781,.04053-2.08789,.12158-3.23926,.1084-1.53613,.1626-2.71191,.1626-3.52832,0-.52734-.03418-1.34277-.10156-2.44824-.06787-1.10352-.10156-1.91943-.10156-2.44775,0-1.24805,.29102-2.26807,.87402-3.06006,.58252-.79199,1.33447-1.18799,2.25586-1.18799,1.02979,0,1.76807,.396,2.21533,1.18799s.76562,2.26758,.95508,4.42773c.29834,3.60059,1.84277,5.40039,4.63428,5.40039,1.13818,0,2.04541-.47949,2.72314-1.44043,.67725-.95898,1.01611-2.20703,1.01611-3.74365,0-1.67969-.29834-2.86768-.89404-3.56445-.59619-.69482-2.01904-1.52295-4.26807-2.48389l-2.68262-1.15186c-1.16553-.52783-2.25-1.46387-3.25195-2.80811-1.95117-2.5918-2.92676-6.07178-2.92676-10.43994,0-4.41553,.8335-8.00342,2.5-10.76416,1.6665-2.75928,3.82715-4.13965,6.4834-4.13965Z" style="fill:none; stroke:#231f20; stroke-miterlimit:10;"/><path d="M161.74951,25.91602v5.04004h8.53613v-5.04004c0-1.4873-.01416-2.3042-.04053-2.44824-.08154-1.00781-.33936-1.51172-.77246-1.51172-.18994,0-.35254,.02441-.48779,.07178h-.36572c-1.19287,0-1.78857-1.46338-1.78857-4.39209,0-1.58398,.25-2.85498,.75195-3.81592,.50098-.95947,1.1582-1.43994,1.97119-1.43994,.54199,0,1.35498,.12061,2.43896,.35986,1.0835,.24072,1.89648,.36035,2.43896,.36035,.70459,0,1.58545-.0957,2.64209-.28809,1.84277-.33545,2.75-.50391,2.72363-.50391,.8667,0,1.56494,.49268,2.09326,1.47559,.52832,.98438,.79248,2.26807,.79248,3.85205,0,1.34473-.20996,2.47314-.62988,3.38428-.42041,.91211-.94189,1.36768-1.56494,1.36768-.24365,0-.57617-.08301-.99609-.25195-.42041-.16748-.73828-.25195-.95508-.25195-.54248,0-.89404,.60107-1.05664,1.80029-.05469,.47998-.08154,1.48828-.08154,3.02393v19.94385c0,3.26514,.36572,4.896,1.09766,4.896,.21631,0,.5415-.08301,.97559-.25195,.43311-.16699,.7583-.25195,.97559-.25195,.62305,0,1.15137,.45703,1.58496,1.36816,.43311,.91211,.65039,2.04102,.65039,3.38379,0,1.58398-.26416,2.86914-.79248,3.85254-.52832,.98438-1.22656,1.47559-2.09326,1.47559h-.1626c-.05469-.04785-.10889-.07227-.1626-.07227-.54248,0-1.35547-.12012-2.43896-.35938-1.08398-.24023-1.91064-.36035-2.47949-.36035-1.05713,0-1.95117,.09668-2.68262,.28809-1.11182,.28809-1.89746,.43164-2.35791,.43164-.78613,0-1.42969-.49121-1.93066-1.47559-.50195-.9834-.75195-2.26758-.75195-3.85156,0-2.92773,.5957-4.39258,1.78857-4.39258,.1626,0,.28418,.02441,.36572,.07227h.28467c.10791,.04785,.17578,.07227,.20312,.07227,.43311,0,.69092-.52832,.77246-1.58398,.02637-.52832,.04053-1.34375,.04053-2.44873v-7.12793h-8.53613v9.64795c.08105,1.00781,.35205,1.5127,.81299,1.5127,.02686,0,.09473-.02441,.20312-.07227h.24414c.08105-.04785,.20312-.07227,.36572-.07227,1.19189,0,1.78857,1.46484,1.78857,4.39258,0,1.58398-.25098,2.86816-.75195,3.85156-.50195,.98438-1.14551,1.47559-1.93115,1.47559-.48779,0-1.22607-.12012-2.21533-.35938-.98926-.24023-1.74121-.36035-2.25586-.36035-1.16553,0-2.18164,.09668-3.04834,.28809-1.30078,.28809-2.20898,.43164-2.72363,.43164-.86768,0-1.56494-.47852-2.09326-1.43945-.52832-.95996-.79297-2.23242-.79297-3.81641,0-1.34277,.2168-2.47168,.65039-3.38379,.43359-.91113,.96191-1.36816,1.58545-1.36816,.2168,0,.53467,.08496,.95508,.25195,.41992,.16895,.73828,.25195,.95557,.25195,.73145,0,1.09717-1.63086,1.09717-4.896V26.70801c0-3.21533-.36572-4.82422-1.09717-4.82422-.21729,0-.53564,.08447-.95557,.25195-.42041,.16895-.75195,.25195-.99561,.25195-.62402,0-1.14502-.45557-1.56494-1.36768-.42041-.91113-.63037-2.03955-.63037-3.38428,0-1.58398,.271-2.85498,.81299-3.81592,.54199-.95947,1.24609-1.43994,2.11377-1.43994,.27051,0,1.13818,.14404,2.60156,.43213,.97559,.19238,1.95117,.28809,2.92676,.28809,.83984,0,1.62598-.0957,2.35742-.28809,1.0835-.28809,1.85596-.43213,2.31689-.43213,.81299,0,1.46338,.49268,1.95117,1.47607,.48779,.98438,.73193,2.26807,.73193,3.85205,0,2.87988-.59668,4.31982-1.78857,4.31982h-.36572c-.10889-.04736-.2583-.07178-.44727-.07178-.46094,0-.73193,.50391-.81299,1.51172v2.44824Z" style="fill:none; stroke:#231f20; stroke-miterlimit:10;"/><path d="M206.70557,25.98779v7.77588l5.89404-9.64795c.94824-1.53564,1.42236-2.66406,1.42236-3.38379,0-.38379-.0542-.67188-.1626-.86426-.1084-.19092-.28418-.40723-.52832-.64795-.51514-.67139-.77197-1.55908-.77197-2.66406,0-1.24756,.24365-2.25537,.73145-3.02393,.48779-.76709,1.12402-1.15186,1.91064-1.15186,.51416,0,1.26611,.12061,2.25586,.35986,.98877,.24072,1.74072,.36035,2.25586,.36035,.56934,0,1.35498-.14404,2.35742-.43213,.67725-.19141,1.26025-.28809,1.74805-.28809,.89453,0,1.60547,.44434,2.13428,1.33203,.52832,.88867,.79248,2.10059,.79248,3.63574,0,1.39307-.21045,2.58105-.62988,3.56445-.4209,.98438-.91455,1.47559-1.48389,1.47559-.18994,0-.4541-.08301-.79248-.25195-.33936-.16748-.60352-.25195-.79297-.25195-.3252,0-.78613,.40869-1.38184,1.22412l-.73145,1.00781-3.94287,6.12012c-.81299,1.24902-1.21973,2.13623-1.21973,2.66406,0,.28809,.14844,.88867,.44727,1.7998l1.05664,3.31201,2.88623,8.7124c1.05664,3.21631,1.89648,4.82373,2.52002,4.82373,.1626,0,.44043-.08301,.8335-.25195,.39258-.16699,.69727-.25195,.91455-.25195,1.46338,0,2.19482,1.58398,2.19482,4.75195,0,1.58398-.271,2.85645-.81299,3.81641-.54248,.96094-1.25977,1.43945-2.1543,1.43945-.51514,0-1.125-.09668-1.8291-.28809-1.05664-.28711-2.00586-.43164-2.84521-.43164-.48779,0-1.21338,.12012-2.1748,.36035-.9624,.23926-1.68701,.35938-2.1748,.35938-.70508,0-1.30078-.38281-1.78857-1.15137-.48779-.76758-.73145-1.72852-.73145-2.87988,0-1.10352,.37891-2.20801,1.13818-3.3125,.35156-.47949,.52832-1.00781,.52832-1.58398,0-.52734-.21729-1.46387-.65039-2.80762l-2.1543-6.62451c-.48779-1.53564-.82715-2.3042-1.01611-2.3042-.1626,0-.31201,.12061-.44727,.36035l-.40625,.71973-2.39844,3.52832v4.96777c.08105,1.00781,.35205,1.5127,.81299,1.5127,.02686,0,.09473-.02441,.20312-.07227h.24414c.08105-.04785,.20312-.07227,.36572-.07227,1.19189,0,1.78857,1.48828,1.78857,4.46387,0,1.58398-.24414,2.85645-.73193,3.81641-.48779,.96094-1.15186,1.43945-1.9917,1.43945-.37988,0-.93506-.09668-1.6665-.28809-.84033-.19043-1.40918-.31152-1.70703-.35938-.40674-.04785-.88135-.07227-1.42285-.07227-.62354,0-1.52441,.12012-2.70312,.36035-1.17871,.23926-2.06689,.35938-2.6626,.35938-.86768,0-1.57178-.47852-2.11377-1.43945-.54199-.95996-.81299-2.23242-.81299-3.81641,0-1.3916,.20996-2.53125,.63037-3.41992,.41992-.8877,.95508-1.33203,1.60547-1.33203,.2168,0,.53467,.08496,.95508,.25195,.41992,.16895,.73828,.25195,.95557,.25195,.73145,0,1.09717-1.63086,1.09717-4.896V26.70801c0-1.53564-.02734-2.52002-.08105-2.95215-.13574-1.24756-.47461-1.87207-1.01611-1.87207-.21729,0-.53564,.08447-.95557,.25195-.42041,.16895-.75195,.25195-.99561,.25195-.62402,0-1.14502-.45557-1.56494-1.36768-.42041-.91113-.63037-2.03955-.63037-3.38428,0-1.63086,.26465-2.91602,.79297-3.85205s1.23975-1.40381,2.13379-1.40381c.5957,0,1.51025,.12061,2.74365,.35986,1.23291,.24072,2.1748,.36035,2.8252,.36035,.51465,0,1.28662-.11963,2.31689-.36035,1.02979-.23926,1.80176-.35986,2.31689-.35986,.81299,0,1.46338,.48047,1.95117,1.43994,.48779,.96094,.73193,2.25684,.73193,3.88818,0,2.87988-.59668,4.31982-1.78857,4.31982h-.36572c-.10889-.04736-.27148-.07178-.48779-.07178-.43408,0-.69141,.50391-.77246,1.51172v2.52002Z" style="fill:none; stroke:#231f20; stroke-miterlimit:10;"/><path d="M246.25586,45.78809h-5.40625c-1.54443,0-2.31689,1.63232-2.31689,4.89648,0,.76758,.22998,1.15137,.69092,1.15137,.13525,0,.33887-.03613,.60986-.10742,.27051-.07227,.47363-.1084,.60986-.1084,1.00195,0,1.50391,1.41602,1.50391,4.24805,0,1.53711-.23047,2.78418-.69092,3.74414-.46143,.96094-1.0708,1.43945-1.82959,1.43945-.37939,0-1.21924-.16797-2.52002-.50391-.56885-.14355-1.36865-.21582-2.39795-.21582-1.11182,0-1.97852,.07227-2.60156,.21582-1.43701,.33594-2.29053,.50391-2.56104,.50391-.84033,0-1.52441-.45508-2.05273-1.36719s-.79248-2.1123-.79248-3.60059c0-3.35938,.71777-5.04004,2.1543-5.04004,.1626,0,.41992,.03613,.77246,.1084,.35156,.07227,.60938,.10742,.77197,.10742,.51465,0,.93506-.50391,1.26025-1.51172,.08105-.28809,.27051-1.17578,.56885-2.66406l5.60986-28.2959c.65039-3.21533,1.38184-5.23145,2.19482-6.04834,.5957-.52734,1.91064-.79199,3.94287-.79199,2.27637,0,3.7124,.25195,4.30859,.75635,.5957,.50391,1.0835,1.90771,1.46338,4.21191l5.20312,30.67188c.40625,2.44824,.88037,3.67188,1.42236,3.67188,.1626,0,.44727-.07129,.854-.21582h.44678c1.51758,0,2.27637,1.58398,2.27637,4.75195,0,1.58398-.271,2.85645-.81299,3.81641-.54248,.96094-1.24658,1.43945-2.11377,1.43945-.37939,0-.88086-.07129-1.50391-.21582-.75879-.23926-1.25977-.35938-1.50391-.35938-.59619-.0957-1.36865-.14453-2.31689-.14453-1.03027,0-1.72119,.04883-2.07324,.14453-1.38184,.38281-2.24951,.5752-2.60156,.5752-.73145,0-1.33496-.49121-1.80859-1.47559-.47461-.9834-.71143-2.21973-.71143-3.70801,0-2.83203,.51465-4.24805,1.54492-4.24805,.13525,0,.33838,.03613,.60938,.1084,.27051,.07129,.47412,.10742,.60986,.10742,.51465,0,.77246-.50391,.77246-1.51172,0-1.2959-.14941-2.37598-.44727-3.24023-.29834-.86426-.67773-1.2959-1.13818-1.2959Zm-.60986-11.01611l-1.95117-14.76025-2.52002,15.33594c-.02734,.14404-.04053,.31299-.04053,.50439,0,.57568,.33838,.86377,1.01611,.86377h2.52002c.70459,0,1.05713-.33496,1.05713-1.00781,0,.04834-.02734-.26318-.08154-.93604Z" style="fill:none; stroke:#231f20; stroke-miterlimit:10;"/><path d="M276.37549,17.2041l7.1543,30.81641V26.70801c0-3.21533-.35254-4.82422-1.05713-4.82422-.18994,0-.46729,.08447-.83301,.25195-.36621,.16895-.64404,.25195-.8335,.25195-.56885,0-1.05029-.45557-1.44287-1.36768-.39307-.91113-.58936-2.03955-.58936-3.38428,0-1.58398,.25732-2.85498,.77197-3.81592,.51465-.95947,1.19238-1.43994,2.03271-1.43994,.43311,0,1.17871,.12061,2.23535,.35986,1.05713,.24072,1.99219,.36035,2.80518,.36035,.73145,0,1.58496-.0957,2.56055-.28809,1.46338-.28809,2.37109-.43213,2.72363-.43213,.8667,0,1.5708,.48047,2.11377,1.43994,.54199,.96094,.8125,2.23193,.8125,3.81592,0,1.34473-.2168,2.47314-.65039,3.38428-.43359,.91211-.96191,1.36768-1.58496,1.36768-.24414,0-.56934-.08301-.97559-.25195-.40674-.16748-.71826-.25195-.93506-.25195-.54248,0-.89404,.60107-1.05664,1.80029-.05469,.47998-.08154,1.48828-.08154,3.02393v29.30371c0,3.16797-.73145,4.75195-2.19482,4.75195-.271,0-.68457-.03516-1.23975-.10742-.55566-.07227-.96924-.1084-1.23975-.1084-.02734,0-.69092,.04883-1.9917,.14453h-.89453c-.78613,0-1.36865-.33594-1.74756-1.00781-.21729-.38379-.52881-1.41602-.93506-3.09668l-7.84521-31.68018v21.74414c0,3.26514,.35205,4.896,1.05713,4.896,.18896,0,.48047-.08301,.87354-.25195,.39258-.16699,.68408-.25195,.87402-.25195,.56934,0,1.0498,.45703,1.44336,1.36816,.39209,.91211,.58936,2.04102,.58936,3.38379,0,3.50488-.94922,5.25586-2.8457,5.25586-.54199,0-1.43652-.14355-2.68262-.43164-.84033-.19141-1.68066-.28809-2.52002-.28809-.70508,0-1.65332,.12012-2.8457,.36035-1.19238,.23926-1.95117,.35938-2.27588,.35938-1.97852,0-2.96777-1.75098-2.96777-5.25586,0-1.34277,.20996-2.47168,.63037-3.38379,.41992-.91113,.94092-1.36816,1.56494-1.36816,.24365,0,.5752,.08496,.99561,.25195,.41992,.16895,.73828,.25195,.95557,.25195,.73145,0,1.09717-1.63086,1.09717-4.896V26.70801c0-3.21533-.36572-4.82422-1.09717-4.82422-.21729,0-.53564,.08447-.95557,.25195-.42041,.16895-.75195,.25195-.99561,.25195-.62402,0-1.14502-.45557-1.56494-1.36768-.42041-.91113-.63037-2.03955-.63037-3.38428,0-1.58398,.271-2.85498,.81299-3.81592,.54199-.95947,1.24609-1.43994,2.11377-1.43994,.56934,0,1.39551,.12061,2.47949,.35986,1.0835,.24072,1.9375,.36035,2.56104,.36035,.51465,0,1.39551-.0957,2.64209-.28809,.56885-.04736,1.21924-.14404,1.95117-.28809,.3252-.0957,.67725-.14404,1.05664-.14404,.73193,0,1.30078,.50391,1.70752,1.51221,.1626,.38477,.46045,1.48828,.89404,3.31201Z" style="fill:none; stroke:#231f20; stroke-miterlimit:10;"/><path d="M313.04053,45.78809h-5.40625c-1.54492,0-2.31738,1.63232-2.31738,4.89648,0,.76758,.22949,1.15137,.69141,1.15137,.13477,0,.33789-.03613,.60938-.10742,.27051-.07227,.47363-.1084,.60938-.1084,1.00293,0,1.50391,1.41602,1.50391,4.24805,0,1.53711-.23047,2.78418-.69043,3.74414-.46094,.96094-1.07129,1.43945-1.8291,1.43945-.37988,0-1.21973-.16797-2.52051-.50391-.56934-.14355-1.36816-.21582-2.39844-.21582-1.11133,0-1.97852,.07227-2.60156,.21582-1.43652,.33594-2.29004,.50391-2.56055,.50391-.83984,0-1.52441-.45508-2.05273-1.36719s-.79297-2.1123-.79297-3.60059c0-3.35938,.71777-5.04004,2.1543-5.04004,.16309,0,.41992,.03613,.77246,.1084s.61035,.10742,.77246,.10742c.51465,0,.93457-.50391,1.25977-1.51172,.08203-.28809,.27148-1.17578,.56934-2.66406l5.60938-28.2959c.65039-3.21533,1.38184-5.23145,2.19531-6.04834,.5957-.52734,1.91016-.79199,3.94238-.79199,2.27637,0,3.71289,.25195,4.30957,.75635,.5957,.50391,1.08301,1.90771,1.46289,4.21191l5.20312,30.67188c.40625,2.44824,.87988,3.67188,1.42285,3.67188,.16211,0,.44727-.07129,.85352-.21582h.44727c1.5166,0,2.27637,1.58398,2.27637,4.75195,0,1.58398-.27148,2.85645-.81348,3.81641-.54199,.96094-1.24707,1.43945-2.11328,1.43945-.37988,0-.88086-.07129-1.50391-.21582-.75977-.23926-1.26074-.35938-1.50391-.35938-.59668-.0957-1.36914-.14453-2.31738-.14453-1.03027,0-1.72168,.04883-2.07324,.14453-1.38184,.38281-2.24902,.5752-2.60156,.5752-.73145,0-1.33496-.49121-1.80859-1.47559-.47461-.9834-.71094-2.21973-.71094-3.70801,0-2.83203,.51367-4.24805,1.54395-4.24805,.13574,0,.33887,.03613,.61035,.1084,.27051,.07129,.47363,.10742,.60938,.10742,.51465,0,.77246-.50391,.77246-1.51172,0-1.2959-.14941-2.37598-.44727-3.24023-.29883-.86426-.67773-1.2959-1.1377-1.2959Zm-.61035-11.01611l-1.95117-14.76025-2.51953,15.33594c-.02734,.14404-.04102,.31299-.04102,.50439,0,.57568,.33887,.86377,1.0166,.86377h2.51953c.7041,0,1.05664-.33496,1.05664-1.00781,0,.04834-.02734-.26318-.08105-.93604Z" style="fill:none; stroke:#231f20; stroke-miterlimit:10;"/><path d="M339.33838,25.98779v7.77588l5.89453-9.64795c.94824-1.53564,1.42285-2.66406,1.42285-3.38379,0-.38379-.05469-.67188-.16309-.86426-.1084-.19092-.28418-.40723-.52832-.64795-.51465-.67139-.77246-1.55908-.77246-2.66406,0-1.24756,.24414-2.25537,.73242-3.02393,.4873-.76709,1.12402-1.15186,1.91016-1.15186,.51465,0,1.2666,.12061,2.25586,.35986,.98926,.24072,1.74121,.36035,2.25586,.36035,.56934,0,1.35449-.14404,2.35742-.43213,.67773-.19141,1.26074-.28809,1.74805-.28809,.89453,0,1.60547,.44434,2.13379,1.33203,.52832,.88867,.79297,2.10059,.79297,3.63574,0,1.39307-.20996,2.58105-.62988,3.56445-.4209,.98438-.91504,1.47559-1.4834,1.47559-.19043,0-.4541-.08301-.79297-.25195-.33887-.16748-.60352-.25195-.79297-.25195-.3252,0-.78613,.40869-1.38184,1.22412l-.73145,1.00781-3.94336,6.12012c-.8125,1.24902-1.21875,2.13623-1.21875,2.66406,0,.28809,.14844,.88867,.44629,1.7998l1.05762,3.31201,2.88574,8.7124c1.05664,3.21631,1.89648,4.82373,2.52051,4.82373,.16211,0,.43945-.08301,.83301-.25195,.39258-.16699,.69727-.25195,.91406-.25195,1.46387,0,2.19531,1.58398,2.19531,4.75195,0,1.58398-.27148,2.85645-.8125,3.81641-.54297,.96094-1.26074,1.43945-2.1543,1.43945-.51562,0-1.125-.09668-1.83008-.28809-1.05664-.28711-2.00488-.43164-2.84473-.43164-.48828,0-1.21289,.12012-2.1748,.36035-.96191,.23926-1.68652,.35938-2.1748,.35938-.70508,0-1.30078-.38281-1.78809-1.15137-.48828-.76758-.73242-1.72852-.73242-2.87988,0-1.10352,.37988-2.20801,1.13867-3.3125,.35156-.47949,.52832-1.00781,.52832-1.58398,0-.52734-.2168-1.46387-.65039-2.80762l-2.1543-6.62451c-.48828-1.53564-.82715-2.3042-1.0166-2.3042-.16211,0-.31152,.12061-.44727,.36035l-.40625,.71973-2.39844,3.52832v4.96777c.08203,1.00781,.35254,1.5127,.81348,1.5127,.02637,0,.09473-.02441,.20312-.07227h.24414c.08105-.04785,.20312-.07227,.36523-.07227,1.19238,0,1.78906,1.48828,1.78906,4.46387,0,1.58398-.24414,2.85645-.73145,3.81641-.48828,.96094-1.15234,1.43945-1.99219,1.43945-.37988,0-.93457-.09668-1.66699-.28809-.83984-.19043-1.40918-.31152-1.70703-.35938-.40625-.04785-.88086-.07227-1.42285-.07227-.62305,0-1.52344,.12012-2.70312,.36035-1.17871,.23926-2.06641,.35938-2.66211,.35938-.86719,0-1.57227-.47852-2.11328-1.43945-.54297-.95996-.81348-2.23242-.81348-3.81641,0-1.3916,.20996-2.53125,.62988-3.41992,.41992-.8877,.95605-1.33203,1.60645-1.33203,.21582,0,.53418,.08496,.95508,.25195,.41992,.16895,.7373,.25195,.95508,.25195,.73145,0,1.09766-1.63086,1.09766-4.896V26.70801c0-1.53564-.02734-2.52002-.08203-2.95215-.13574-1.24756-.47363-1.87207-1.01562-1.87207-.21777,0-.53516,.08447-.95508,.25195-.4209,.16895-.75195,.25195-.99609,.25195-.62402,0-1.14551-.45557-1.56543-1.36768-.41992-.91113-.62988-2.03955-.62988-3.38428,0-1.63086,.26465-2.91602,.79297-3.85205s1.23926-1.40381,2.13379-1.40381c.5957,0,1.51074,.12061,2.74414,.35986,1.23242,.24072,2.1748,.36035,2.8252,.36035,.51367,0,1.28613-.11963,2.31641-.36035,1.0293-.23926,1.80176-.35986,2.31738-.35986,.8125,0,1.46289,.48047,1.95117,1.43994,.4873,.96094,.73145,2.25684,.73145,3.88818,0,2.87988-.59668,4.31982-1.78906,4.31982h-.36523c-.1084-.04736-.27148-.07178-.48828-.07178-.43359,0-.69043,.50391-.77246,1.51172v2.52002Z" style="fill:none; stroke:#231f20; stroke-miterlimit:10;"/><path d="M378.89014,45.78809h-5.40625c-1.54492,0-2.31738,1.63232-2.31738,4.89648,0,.76758,.22949,1.15137,.69141,1.15137,.13477,0,.33789-.03613,.60938-.10742,.27051-.07227,.47363-.1084,.60938-.1084,1.00293,0,1.50391,1.41602,1.50391,4.24805,0,1.53711-.23047,2.78418-.69043,3.74414-.46094,.96094-1.07129,1.43945-1.8291,1.43945-.37988,0-1.21973-.16797-2.52051-.50391-.56934-.14355-1.36816-.21582-2.39844-.21582-1.11133,0-1.97852,.07227-2.60156,.21582-1.43652,.33594-2.29004,.50391-2.56055,.50391-.83984,0-1.52441-.45508-2.05273-1.36719s-.79297-2.1123-.79297-3.60059c0-3.35938,.71777-5.04004,2.1543-5.04004,.16309,0,.41992,.03613,.77246,.1084s.61035,.10742,.77246,.10742c.51465,0,.93457-.50391,1.25977-1.51172,.08203-.28809,.27148-1.17578,.56934-2.66406l5.60938-28.2959c.65039-3.21533,1.38184-5.23145,2.19531-6.04834,.5957-.52734,1.91016-.79199,3.94238-.79199,2.27637,0,3.71289,.25195,4.30957,.75635,.5957,.50391,1.08301,1.90771,1.46289,4.21191l5.20312,30.67188c.40625,2.44824,.87988,3.67188,1.42285,3.67188,.16211,0,.44727-.07129,.85352-.21582h.44727c1.5166,0,2.27637,1.58398,2.27637,4.75195,0,1.58398-.27148,2.85645-.81348,3.81641-.54199,.96094-1.24707,1.43945-2.11328,1.43945-.37988,0-.88086-.07129-1.50391-.21582-.75977-.23926-1.26074-.35938-1.50391-.35938-.59668-.0957-1.36914-.14453-2.31738-.14453-1.03027,0-1.72168,.04883-2.07324,.14453-1.38184,.38281-2.24902,.5752-2.60156,.5752-.73145,0-1.33496-.49121-1.80859-1.47559-.47461-.9834-.71094-2.21973-.71094-3.70801,0-2.83203,.51367-4.24805,1.54395-4.24805,.13574,0,.33887,.03613,.61035,.1084,.27051,.07129,.47363,.10742,.60938,.10742,.51465,0,.77246-.50391,.77246-1.51172,0-1.2959-.14941-2.37598-.44727-3.24023-.29883-.86426-.67773-1.2959-1.1377-1.2959Zm-.61035-11.01611l-1.95117-14.76025-2.51953,15.33594c-.02734,.14404-.04102,.31299-.04102,.50439,0,.57568,.33887,.86377,1.0166,.86377h2.51953c.7041,0,1.05664-.33496,1.05664-1.00781,0,.04834-.02734-.26318-.08105-.93604Z" style="fill:none; stroke:#231f20; stroke-miterlimit:10;"/><path d="M410.59424,16.84375l3.37402,26.28027,3.53613-25.2002c.29785-2.11133,.63086-3.56396,.99609-4.35596,.36621-.79199,.8877-1.18799,1.56543-1.18799,.5957,0,1.50391,.12061,2.72363,.35986,1.21875,.24072,2.13965,.36035,2.76367,.36035,.65039,0,2.2627-.19141,4.83691-.57617,.73145-.0957,1.27344-.14404,1.62598-.14404,.89453,0,1.6123,.46777,2.1543,1.40381s.81348,2.22119,.81348,3.85205c0,1.34473-.21094,2.47314-.63086,3.38428-.41992,.91211-.94141,1.36768-1.56445,1.36768-.24414,0-.58301-.08301-1.0166-.25195-.43359-.16748-.74512-.25195-.93457-.25195-.73145,0-1.09766,1.60889-1.09766,4.82422v19.94385c0,3.26514,.35156,4.896,1.05664,4.896,.2168,0,.54199-.08301,.97559-.25195,.43359-.16699,.75879-.25195,.97559-.25195,.62305,0,1.15137,.45703,1.58594,1.36816,.43262,.91211,.65039,2.04102,.65039,3.38379,0,1.63281-.27148,2.91602-.81348,3.85254-.54199,.93555-1.25977,1.40332-2.1543,1.40332-.51465,0-1.38184-.14355-2.60156-.43164-.8125-.19141-1.62598-.28809-2.43848-.28809-.51562,0-1.27441,.12012-2.27637,.36035-1.00293,.23926-1.76172,.35938-2.27637,.35938-.81348,0-1.4707-.47852-1.97168-1.43945-.50195-.95996-.75195-2.23242-.75195-3.81641,0-2.97559,.55566-4.46387,1.66699-4.46387,.16211,0,.28418,.02441,.36523,.07227h.28516c.10742,.04785,.17578,.07227,.20312,.07227,.43262,0,.69043-.52832,.77246-1.58398,.02637-.47949,.04004-1.29688,.04004-2.44873V20.2998l-5.64941,35.4248c-.48828,3.07227-1.28809,4.60742-2.39844,4.60742h-2.60156c-1.08398,0-1.8291-1.36816-2.23535-4.10352l-5.40625-35.92871v27.14404c0,2.25732,.12109,3.52783,.36523,3.81592,.08105,.14453,.23047,.2168,.44727,.2168,.05371,0,.13574-.02441,.24414-.07227h.24414c.08105-.04785,.20312-.07227,.36523-.07227,1.08398,0,1.62598,1.46484,1.62598,4.39258,0,1.63184-.24414,2.92773-.73145,3.8877-.48828,.96094-1.13867,1.43945-1.95117,1.43945-.37988,0-.86719-.07129-1.46289-.21582-.75977-.19141-1.23438-.31152-1.42285-.35938-.56934-.0957-1.21973-.14453-1.95117-.14453-.92188,0-1.69434,.07227-2.31738,.21582l-2.51953,.57617c-.84082,0-1.53223-.50391-2.07324-1.51172-.54297-1.00781-.81348-2.2793-.81348-3.81641,0-1.3916,.20996-2.53125,.62988-3.41992,.41992-.8877,.95605-1.33203,1.60645-1.33203,.21582,0,.53418,.08496,.95508,.25195,.41992,.16895,.7373,.25195,.95508,.25195,.54199,0,.87988-.62305,1.01562-1.87207,.05469-.47852,.08203-1.4873,.08203-3.02393V26.70801c0-1.53564-.02734-2.52002-.08203-2.95215-.13574-1.24756-.47363-1.87207-1.01562-1.87207-.21777,0-.53516,.08447-.95508,.25195-.4209,.16895-.75195,.25195-.99609,.25195-.62402,0-1.14551-.45557-1.56543-1.36768-.41992-.91113-.62988-2.03955-.62988-3.38428,0-3.50293,1.00293-5.25586,3.00781-5.25586,.65039,0,1.73438,.12061,3.25195,.35986,1.51758,.24072,2.65527,.36035,3.41504,.36035,1.21875,0,2.49219-.14404,3.82031-.43213,.89453-.19141,1.59863-.28809,2.11426-.28809,.67676,0,1.15137,.28809,1.42285,.86377,.27051,.57617,.52832,1.77686,.77148,3.6001Z" style="fill:none; stroke:#231f20; stroke-miterlimit:10;"/><path d="M451.2417,21.45166c-.89355,0-1.49023,.14404-1.78809,.43213-.40625,.43213-.61035,1.39307-.61035,2.87988v4.03223c0,.81689,.06152,1.42871,.18359,1.83594,.12207,.4082,.43945,.61182,.95508,.61182,1.19238,0,1.78809-.76709,1.78809-2.30371v-.93604c-.02734-.28809-.04004-.64795-.04004-1.08008,0-2.01611,.66309-3.02393,1.99121-3.02393,1.38281,0,2.07324,1.22412,2.07324,3.67188,0,.67285-.02734,1.4165-.08105,2.23193-.1084,1.58398-.16309,3.04883-.16309,4.39209,0,1.24902,.05469,2.83301,.16309,4.75195,.10742,1.92041,.16211,3.26465,.16211,4.03223,0,2.83252-.71777,4.24805-2.1543,4.24805-1.35547,0-2.03223-1.22412-2.03223-3.67236v-.35986c0-.23975,.02637-.81543,.08105-1.72803,0-1.15186-.58301-1.72803-1.74707-1.72803-.78711,0-1.17969,.76855-1.17969,2.3042v5.3999c0,1.68115,.16895,2.8208,.50879,3.42041,.33789,.60059,.96875,.89941,1.88965,.89941h2.35742c1.73438,0,2.94727-.2627,3.63867-.79199,.69043-.52734,1.03613-1.46289,1.03613-2.80762,0-.67188-.04004-1.47607-.12207-2.41211-.08105-.93604-.12207-1.71582-.12207-2.33984,0-1.77539,.28516-3.16846,.85449-4.17627,.56836-1.00781,1.34082-1.51172,2.31641-1.51172,1.97754,0,2.96777,1.91992,2.96777,5.75977,0,1.24854-.04102,2.56836-.12207,3.95996-.13574,2.3042-.20312,3.74463-.20312,4.31982,0,.5293,.06738,1.56055,.20312,3.09668,.08105,.91211,.12207,1.84863,.12207,2.80762,0,2.25684-.7998,3.38379-2.39844,3.38379-.51562,0-1.36914-.07129-2.56055-.21582-1.97852-.23926-5.13574-.40723-9.47168-.50391h-3.61719c-1.35547,0-2.47949,.07227-3.37402,.21582l-3.08887,.50391c-.02734,0-.08203,.02441-.16309,.07227h-.20312c-.84082,0-1.52441-.50391-2.05273-1.51172s-.79297-2.2793-.79297-3.81641c0-1.34277,.20996-2.47168,.62988-3.38379,.41992-.91113,.95605-1.36816,1.60645-1.36816,.21582,0,.54102,.08496,.97559,.25195,.43262,.16895,.74414,.25195,.93457,.25195,.73145,0,1.09766-1.63086,1.09766-4.896V26.70801c0-3.21533-.36621-4.82422-1.09766-4.82422-.16309,0-.48828,.09668-.97559,.28809-.35254,.14404-.66406,.21582-.93457,.21582-.62402,0-1.15234-.45557-1.58594-1.36768-.43359-.91113-.65039-2.03955-.65039-3.38428,0-3.50293,.98926-5.25586,2.96777-5.25586,.45996,0,1.39551,.09668,2.80469,.28809,2.11328,.28809,4.15918,.43213,6.1377,.43213,.18945,0,1.81543-.07227,4.87793-.21631,2.22168-.0957,3.68457-.19092,4.38965-.28809,1.16504-.14404,2.38477-.21582,3.6582-.21582,1.51758,0,2.27637,1.17676,2.27637,3.52783,0,.76855-.04785,1.89697-.1416,3.38428-.0957,1.48828-.14258,2.6167-.14258,3.38379,0,.76855,.06055,1.86084,.18262,3.27588,.12207,1.4165,.18262,2.48438,.18262,3.2041,0,1.39307-.29102,2.56836-.87305,3.52832-.58301,.96045-1.30859,1.43994-2.1748,1.43994-2.03223,0-3.04883-1.84717-3.04883-5.54395,0-.62354,.06055-1.4873,.18262-2.59229,.12207-1.10352,.18359-1.91895,.18359-2.44775,0-1.05518-.3125-1.70361-.93555-1.94434-.2168-.09521-.78613-.14404-1.70703-.14404h-4.02441Z" style="fill:none; stroke:#231f20; stroke-miterlimit:10;"/><path d="M470.91553,51.54785c.73145,0,1.09766-1.63086,1.09766-4.896V26.70801c0-3.21533-.36621-4.82422-1.09766-4.82422-.21777,0-.53516,.08447-.95508,.25195-.4209,.16895-.75195,.25195-.99609,.25195-.62402,0-1.14551-.45557-1.56543-1.36768-.41992-.91113-.62988-2.03955-.62988-3.38428,0-1.58398,.27051-2.85498,.81348-3.81592,.54102-.95947,1.24609-1.43994,2.11328-1.43994,.46094,0,1.40918,.14404,2.8457,.43213,.94824,.19238,1.85547,.28809,2.72363,.28809,.3252,0,1.08301-.07227,2.27637-.21631l2.9668-.35986c.78613-.0957,1.55762-.14404,2.31738-.14404,4.9043,0,8.41406,3.67188,10.52734,11.01611,1.19238,4.12842,1.78906,8.56787,1.78906,13.31982s-.56934,9.12061-1.70801,13.10449c-1.1377,3.98438-2.65527,6.91211-4.55176,8.78418-1.68066,1.63184-3.68652,2.44727-6.0166,2.44727-.9209,0-1.70703-.04785-2.35742-.14355l-2.9668-.43164c-.65039-.0957-1.41016-.14453-2.27637-.14453-1.08496,0-1.99219,.07227-2.72363,.21582l-1.62598,.28809c-.62402,.14453-1.03027,.21582-1.21973,.21582-.86719,0-1.57227-.47852-2.11328-1.43945-.54297-.95996-.81348-2.23242-.81348-3.81641,0-1.34277,.20996-2.47168,.62988-3.38379,.41992-.91113,.94141-1.36816,1.56543-1.36816,.24414,0,.58203,.08496,1.0166,.25195,.43262,.16895,.74414,.25195,.93457,.25195Zm10.56836-29.95215c-.92188,0-1.53809,.25195-1.84961,.75635-.31152,.50391-.46777,1.50049-.46777,2.98779v22.68066c0,1.48828,.15625,2.49609,.46777,3.02344,.31152,.5293,.92773,.79199,1.84961,.79199,1.49023,0,2.83105-1.08008,4.02441-3.24023,1.38184-2.54346,2.07324-6.31104,2.07324-11.30371,0-5.61621-.69141-9.76758-2.07324-12.45605-.62402-1.19922-1.30078-2.06348-2.03223-2.59229-.62402-.43164-1.28809-.64795-1.99219-.64795Z" style="fill:none; stroke:#231f20; stroke-miterlimit:10;"/><path d="M515.05908,45.78809h-5.40625c-1.54492,0-2.31738,1.63232-2.31738,4.89648,0,.76758,.22949,1.15137,.69141,1.15137,.13477,0,.33789-.03613,.60938-.10742,.27051-.07227,.47363-.1084,.60938-.1084,1.00293,0,1.50391,1.41602,1.50391,4.24805,0,1.53711-.23047,2.78418-.69043,3.74414-.46094,.96094-1.07129,1.43945-1.8291,1.43945-.37988,0-1.21973-.16797-2.52051-.50391-.56934-.14355-1.36816-.21582-2.39844-.21582-1.11133,0-1.97852,.07227-2.60156,.21582-1.43652,.33594-2.29004,.50391-2.56055,.50391-.83984,0-1.52441-.45508-2.05273-1.36719s-.79297-2.1123-.79297-3.60059c0-3.35938,.71777-5.04004,2.1543-5.04004,.16309,0,.41992,.03613,.77246,.1084s.61035,.10742,.77246,.10742c.51465,0,.93457-.50391,1.25977-1.51172,.08203-.28809,.27148-1.17578,.56934-2.66406l5.60938-28.2959c.65039-3.21533,1.38184-5.23145,2.19531-6.04834,.5957-.52734,1.91016-.79199,3.94238-.79199,2.27637,0,3.71289,.25195,4.30957,.75635,.5957,.50391,1.08301,1.90771,1.46289,4.21191l5.20312,30.67188c.40625,2.44824,.87988,3.67188,1.42285,3.67188,.16211,0,.44727-.07129,.85352-.21582h.44727c1.5166,0,2.27637,1.58398,2.27637,4.75195,0,1.58398-.27148,2.85645-.81348,3.81641-.54199,.96094-1.24707,1.43945-2.11328,1.43945-.37988,0-.88086-.07129-1.50391-.21582-.75977-.23926-1.26074-.35938-1.50391-.35938-.59668-.0957-1.36914-.14453-2.31738-.14453-1.03027,0-1.72168,.04883-2.07324,.14453-1.38184,.38281-2.24902,.5752-2.60156,.5752-.73145,0-1.33496-.49121-1.80859-1.47559-.47461-.9834-.71094-2.21973-.71094-3.70801,0-2.83203,.51367-4.24805,1.54395-4.24805,.13574,0,.33887,.03613,.61035,.1084,.27051,.07129,.47363,.10742,.60938,.10742,.51465,0,.77246-.50391,.77246-1.51172,0-1.2959-.14941-2.37598-.44727-3.24023-.29883-.86426-.67773-1.2959-1.1377-1.2959Zm-.61035-11.01611l-1.95117-14.76025-2.51953,15.33594c-.02734,.14404-.04102,.31299-.04102,.50439,0,.57568,.33887,.86377,1.0166,.86377h2.51953c.7041,0,1.05664-.33496,1.05664-1.00781,0,.04834-.02734-.26318-.08105-.93604Z" style="fill:none; stroke:#231f20; stroke-miterlimit:10;"/><path d="M542.65869,21.88379c-.86719,0-1.30078,1.3208-1.30078,3.95996v20.3042c0,1.87256,.04102,3.04932,.12207,3.52783,.2168,1.24902,.67773,1.96875,1.38281,2.16016,.16211,.04883,.36523,.08496,.60938,.1084,.24414,.02441,.51465,.03613,.8125,.03613h1.99219c2.19531,0,3.29199-1.19922,3.29199-3.60059,0-.71973-.05371-1.4873-.16211-2.3042-.13574-1.19922-.20312-2.13525-.20312-2.80762,0-1.53564,.3252-2.81934,.97559-3.85205,.65039-1.03174,1.46289-1.54834,2.43848-1.54834,2.16797,0,3.25195,1.89697,3.25195,5.68799,0,.43213-.01367,.96094-.04004,1.58447-.02734,.62402-.06836,1.34424-.12207,2.15967-.05469,.81738-.0957,1.53711-.12207,2.16016-.02734,.625-.04102,1.12891-.04102,1.51172,0,.48047,.00684,.96094,.02051,1.44043,.01367,.48047,.0332,.96094,.06055,1.44043,.05469,.95996,.09473,1.7168,.12207,2.26758,.02734,.55273,.04102,.87598,.04102,.97168,0,2.64062-.88086,3.95996-2.64258,3.95996-.46094,0-1.01562-.02441-1.66602-.07129-.65039-.04883-1.40918-.12109-2.27637-.2168-2.60156-.28711-6.34082-.43164-11.21875-.43164-.73242,0-1.38965,.03613-1.97168,.1084-.58301,.07129-1.11816,.16895-1.60547,.28809-.48828,.11914-.94238,.21582-1.3623,.28809-.41992,.07129-.83301,.10742-1.23926,.10742-.84082,0-1.52441-.50391-2.05273-1.51172s-.79297-2.2793-.79297-3.81641c0-1.3916,.20996-2.53125,.62988-3.41992,.41992-.8877,.95605-1.33203,1.60645-1.33203,.21582,0,.53418,.08496,.95508,.25195,.41992,.16895,.7373,.25195,.95508,.25195,.73145,0,1.09766-1.63086,1.09766-4.896V26.70801c0-3.21533-.36621-4.82422-1.09766-4.82422-.21777,0-.53516,.08447-.95508,.25195-.4209,.16895-.75195,.25195-.99609,.25195-.62402,0-1.14551-.45557-1.56543-1.36768-.41992-.91113-.62988-2.03955-.62988-3.38428,0-3.50293,1.00293-5.25586,3.00781-5.25586,.37988,0,1.54492,.14404,3.49609,.43213,.65039,.09668,1.2666,.16846,1.84961,.21582,.58203,.04834,1.14453,.07227,1.68652,.07227,.46094,0,.9082-.02393,1.3418-.07227,.43262-.04736,.86719-.11914,1.30078-.21582,1.30078-.28809,2.23535-.43213,2.80469-.43213,.89453,0,1.60547,.46777,2.13379,1.40381s.79297,2.19629,.79297,3.78027c0,1.39258-.20312,2.54492-.61035,3.45605-.40625,.91211-.9209,1.36768-1.54395,1.36768-.29883,0-.72559-.08301-1.28027-.25195-.55664-.16748-.9834-.25195-1.28125-.25195Z" style="fill:none; stroke:#231f20; stroke-miterlimit:10;"/><path d="M576.88428,45.78809h-5.40625c-1.54492,0-2.31738,1.63232-2.31738,4.89648,0,.76758,.22949,1.15137,.69141,1.15137,.13477,0,.33789-.03613,.60938-.10742,.27051-.07227,.47363-.1084,.60938-.1084,1.00293,0,1.50391,1.41602,1.50391,4.24805,0,1.53711-.23047,2.78418-.69043,3.74414-.46094,.96094-1.07129,1.43945-1.8291,1.43945-.37988,0-1.21973-.16797-2.52051-.50391-.56934-.14355-1.36816-.21582-2.39844-.21582-1.11133,0-1.97852,.07227-2.60156,.21582-1.43652,.33594-2.29004,.50391-2.56055,.50391-.83984,0-1.52441-.45508-2.05273-1.36719s-.79297-2.1123-.79297-3.60059c0-3.35938,.71777-5.04004,2.1543-5.04004,.16309,0,.41992,.03613,.77246,.1084s.61035,.10742,.77246,.10742c.51465,0,.93457-.50391,1.25977-1.51172,.08203-.28809,.27148-1.17578,.56934-2.66406l5.60938-28.2959c.65039-3.21533,1.38184-5.23145,2.19531-6.04834,.5957-.52734,1.91016-.79199,3.94238-.79199,2.27637,0,3.71289,.25195,4.30957,.75635,.5957,.50391,1.08301,1.90771,1.46289,4.21191l5.20312,30.67188c.40625,2.44824,.87988,3.67188,1.42285,3.67188,.16211,0,.44727-.07129,.85352-.21582h.44727c1.5166,0,2.27637,1.58398,2.27637,4.75195,0,1.58398-.27148,2.85645-.81348,3.81641-.54199,.96094-1.24707,1.43945-2.11328,1.43945-.37988,0-.88086-.07129-1.50391-.21582-.75977-.23926-1.26074-.35938-1.50391-.35938-.59668-.0957-1.36914-.14453-2.31738-.14453-1.03027,0-1.72168,.04883-2.07324,.14453-1.38184,.38281-2.24902,.5752-2.60156,.5752-.73145,0-1.33496-.49121-1.80859-1.47559-.47461-.9834-.71094-2.21973-.71094-3.70801,0-2.83203,.51367-4.24805,1.54395-4.24805,.13574,0,.33887,.03613,.61035,.1084,.27051,.07129,.47363,.10742,.60938,.10742,.51465,0,.77246-.50391,.77246-1.51172,0-1.2959-.14941-2.37598-.44727-3.24023-.29883-.86426-.67773-1.2959-1.1377-1.2959Zm-.61035-11.01611l-1.95117-14.76025-2.51953,15.33594c-.02734,.14404-.04102,.31299-.04102,.50439,0,.57568,.33887,.86377,1.0166,.86377h2.51953c.7041,0,1.05664-.33496,1.05664-1.00781,0,.04834-.02734-.26318-.08105-.93604Z" style="fill:none; stroke:#231f20; stroke-miterlimit:10;"/></g></g></svg>